<?xml version="1.0" encoding="UTF-8" standalone="no"?>
<!-- Created with Inkscape (http://www.inkscape.org/) -->

<svg
   width="160.80576mm"
   height="32.761986mm"
   viewBox="0 0 160.80576 32.761986"
   version="1.1"
   id="svg5"
   xmlns="http://www.w3.org/2000/svg"
   xmlnsSvg="http://www.w3.org/2000/svg">
  <defs
     id="defs2" />
  <g
     id="layer1"
     transform="translate(-8.7799761,-103.87333)">
    <path
       id="path2611-5"
       style="font-variation-settings:'wght' 700;fill:#ffffff;fill-opacity:1;stroke-width:6.27695"
       d="m 39.309196,104.0759 -15.26491,16.27936 -15.24501,-16.25881 v 32.51825 l -0.0193,0.0205 h 0.76684 v -13.16828 a 0.44678312,0.47342739 0 0 1 0.79843,-0.291 c 0.88933,1.20806 2.25379,1.91516 3.69967,1.91625 h 5.9e-4 c 1.44589,-10e-4 2.80975,-0.70819 3.6991,-1.91625 a 0.44678312,0.47342739 0 0 1 0.42056,-0.17665 0.44678312,0.47342739 0 0 1 0.37845,0.46765 v 13.16828 h 0.7569 v -13.16828 a 0.44678312,0.47342739 0 0 1 0.79901,-0.291 c 0.88934,1.20806 2.25323,1.91516 3.6991,1.91625 h 5.7e-4 6e-4 c 1.44589,-10e-4 2.80916,-0.70819 3.6985,-1.91625 a 0.44678312,0.47342739 0 0 1 0.42115,-0.17665 0.44678312,0.47342739 0 0 1 0.37786,0.46765 v 13.16828 h 0.75749 v -13.16828 a 0.44678312,0.47342739 0 0 1 0.79901,-0.291 c 0.88935,1.20806 2.25323,1.91516 3.6991,1.91625 h 5.8e-4 c 1.4459,-10e-4 2.80975,-0.70819 3.69909,-1.91625 a 0.44678312,0.47342739 0 0 1 0.42115,-0.17665 0.44678312,0.47342739 0 0 1 0.37786,0.46765 v 13.16828 h 0.77739 v -13.16828 a 0.44678312,0.47342739 0 0 1 0.79902,-0.291 c 0.88932,1.20806 2.25262,1.91516 3.6985,1.91625 h 5.8e-4 5.9e-4 c 1.44587,-10e-4 2.80916,-0.70819 3.6985,-1.91625 a 0.44678312,0.47342739 0 0 1 0.42174,-0.17665 0.44678312,0.47342739 0 0 1 0.37786,0.46765 v 13.16828 h 0.75749 v -13.16828 a 0.44678312,0.47342739 0 0 1 0.79843,-0.291 c 0.88932,1.20806 2.2532,1.91516 3.69908,1.91625 h 5.9e-4 c 1.4459,-10e-4 2.81033,-0.70819 3.69968,-1.91625 a 0.44678312,0.47342739 0 0 1 0.42057,-0.17665 0.44678312,0.47342739 0 0 1 0.37844,0.46765 v 13.16828 h 0.7569 v -13.16828 a 0.44678312,0.47342739 0 0 1 0.79902,-0.291 c 0.88934,1.20806 2.25264,1.91516 3.6985,1.91625 h 5.9e-4 5.9e-4 c 1.44589,-10e-4 2.80973,-0.70819 3.69908,-1.91625 a 0.44678312,0.47342739 0 0 1 0.42116,-0.17665 0.44678312,0.47342739 0 0 1 0.37786,0.46765 v 13.16828 h 0.76685 v -32.51819 l -14.79873,15.78278 z m -28.86919,20.54415 v 12.0152 h 7.20984 v -12.01456 c -0.9999,0.89906 -2.269,1.4167 -3.60434,1.41775 a 0.44678312,0.47342739 0 0 0 -5.8e-4,0 c -1.33546,-10e-4 -2.60496,-0.51918 -3.60492,-1.41839 z m 9.75428,0 v 12.0152 h 7.20984 v -12.01456 c -0.9999,0.89906 -2.26959,1.4167 -3.60491,1.41775 a 0.44678312,0.47342739 0 0 0 -5.9e-4,0 c -1.33547,-10e-4 -2.60438,-0.51918 -3.60434,-1.41839 z m 9.7537,0 v 12.0152 h 7.20983 v -12.01456 c -0.99989,0.89906 -2.269,1.4167 -3.60433,1.41775 a 0.44678312,0.47342739 0 0 0 -5.8e-4,0 c -1.33547,-10e-4 -2.60497,-0.51918 -3.60492,-1.41839 z m 9.77417,0 v 12.0152 h 7.20984 v -12.01456 c -0.99991,0.89906 -2.26901,1.4167 -3.60434,1.41775 a 0.44678312,0.47342739 0 0 1 -10e-4,0 c -1.33545,-10e-4 -2.60438,-0.51918 -3.60434,-1.41839 z m 9.75428,0 v 12.0152 h 7.20926 v -12.01456 c -0.99991,0.89906 -2.26902,1.4167 -3.60433,1.41775 a 0.44678312,0.47342739 0 0 0 -6e-4,0 c -1.33547,-10e-4 -2.60437,-0.51918 -3.60433,-1.41839 z m 9.75369,0 v 12.0152 h 7.20984 v -12.01456 c -0.9999,0.89906 -2.26901,1.4167 -3.60432,1.41775 a 0.44678312,0.47342739 0 0 1 -10e-4,0 c -1.33545,-10e-4 -2.60439,-0.51918 -3.60432,-1.41839 z" />
    <g
       aria-label="KINGDOM"
       id="text1639-4"
       style="font-size:9.87777px;font-family:Cantarell;-inkscape-font-specification:'Cantarell, @wght=700';font-variation-settings:'wght' 700;fill:#ffffff;fill-opacity:1;stroke:#000000;stroke-width:0.79375"
       transform="matrix(1.5701324,0,0,1.5701324,-131.76006,-49.614929)">
      <path
         id="path1799-9"
         style="font-family:Utopia;-inkscape-font-specification:'Utopia, Normal';fill:#ffffff;fill-opacity:1;stroke:none"
         d="m 150.09636,97.754979 c -1.40193,0 -2.41168,0.405978 -3.02903,1.216263 -0.49518,0.655946 -0.74311,1.482258 -0.74311,2.479038 0,0.62379 0.10994,1.18312 0.32858,1.6783 0.22508,0.48874 0.5238,0.86464 0.89678,1.1283 0.6045,0.418 1.43449,0.62684 2.48915,0.62684 0.61736,0 1.3755,-0.138 2.27582,-0.41452 v -1.93915 h 0.001 c 0,-0.25078 0.0344,-0.40781 0.10514,-0.47215 0.0707,-0.0643 0.26687,-0.11244 0.58842,-0.14457 v -0.29017 h -2.71966 v 0.29017 c 0.48875,0.0322 0.78479,0.0829 0.88768,0.15367 0.1029,0.0643 0.15368,0.21868 0.15368,0.46305 v 1.33152 c 0,0.16077 -0.0254,0.27973 -0.0768,0.35689 -0.0515,0.0708 -0.13498,0.1289 -0.25073,0.1739 -0.27653,0.10289 -0.56889,0.15368 -0.87757,0.15368 -0.4373,0 -0.82322,-0.0735 -1.15763,-0.22142 -0.32797,-0.14791 -0.5886,-0.33402 -0.78152,-0.5591 -0.18649,-0.22508 -0.34086,-0.48938 -0.46305,-0.79163 -0.11574,-0.30868 -0.19292,-0.5947 -0.23152,-0.85836 -0.0386,-0.2701 -0.0576,-0.54341 -0.0576,-0.81994 0,-0.418 0.0418,-0.8066 0.12536,-1.16672 0.09,-0.360133 0.22803,-0.695271 0.41452,-1.003952 0.19293,-0.31511 0.4599,-0.562028 0.80074,-0.742092 0.34726,-0.186494 0.75591,-0.280054 1.22536,-0.280054 0.55305,0 0.98709,0.131646 1.3022,0.395311 0.31511,0.257233 0.52394,0.6622 0.62684,1.215252 h 0.28915 V 98.1604 c -0.54019,-0.270095 -1.24755,-0.405421 -2.12214,-0.405421 z m 14.45058,0 c -1.07395,0 -1.89124,0.318766 -2.45073,0.955419 -0.55948,0.61736 -0.83915,1.489112 -0.83915,2.614512 0,1.11896 0.27967,1.98704 0.83915,2.6044 0.55949,0.63665 1.37678,0.95441 2.45073,0.95441 1.07395,0 1.89023,-0.31776 2.44971,-0.95441 0.55949,-0.61093 0.83915,-1.479 0.83915,-2.6044 0,-1.13183 -0.27966,-2.003583 -0.83915,-2.614512 -0.55948,-0.636653 -1.37576,-0.955419 -2.44971,-0.955419 z m -35.98137,0.145588 v 0.289153 c 0.43086,0.02573 0.68513,0.07016 0.76231,0.134466 0.0836,0.05788 0.12537,0.225954 0.12537,0.50248 v 4.996484 c 0,0.27654 -0.0418,0.4436 -0.12537,0.50147 -0.0772,0.0579 -0.33145,0.0996 -0.76231,0.12537 v 0.28915 h 2.75908 v -0.28915 c -0.43086,-0.0321 -0.68882,-0.0739 -0.77242,-0.12537 -0.0836,-0.0579 -0.12537,-0.22494 -0.12537,-0.50147 v -2.61451 h 0.0202 l 0.009,0.0485 c 0.62379,0.95819 1.29573,1.84264 2.01599,2.65293 0.27009,0.30868 0.54074,0.52386 0.81084,0.64605 0.27009,0.12218 0.5688,0.18933 0.89678,0.2022 l 0.62683,0.0293 v -0.23152 c -0.3151,-0.0643 -0.69735,-0.33496 -1.14751,-0.81085 -0.93247,-0.99678 -1.72704,-1.98013 -2.38299,-2.95118 0.66238,-0.73312 1.33432,-1.396038 2.01599,-1.987675 0.26366,-0.237941 0.4862,-0.39231 0.66626,-0.463049 0.1865,-0.07717 0.48254,-0.127956 0.88768,-0.153676 v -0.289153 h -2.40219 v 0.289153 l 0.3761,0.02831 c 0.10933,0.01286 0.16378,0.05196 0.16378,0.116268 0,0.06431 -0.0508,0.157868 -0.15367,0.280054 -0.43087,0.488742 -1.23178,1.334095 -2.4022,2.536658 v -2.324343 h -0.001 c 0,-0.276523 0.0418,-0.4446 0.12537,-0.50248 0.0836,-0.06431 0.34156,-0.108746 0.77242,-0.134466 v -0.289153 z m 6.49179,0 v 0.289153 c 0.43086,0.02573 0.68514,0.07016 0.76231,0.134466 0.0836,0.05788 0.12537,0.225954 0.12537,0.50248 v 4.996484 c 0,0.27654 -0.0418,0.4436 -0.12537,0.50147 -0.0772,0.0579 -0.33145,0.0996 -0.76231,0.12537 v 0.28915 h 2.75909 v -0.28915 c -0.43087,-0.0321 -0.68782,-0.0739 -0.77142,-0.12537 -0.0836,-0.0579 -0.12536,-0.22494 -0.12536,-0.50147 v -4.996484 c 0,-0.276523 0.0418,-0.4446 0.12536,-0.50248 0.0836,-0.06431 0.34055,-0.108746 0.77142,-0.134466 v -0.289153 z m 3.43445,0 v 0.289153 c 0.43086,0.02573 0.68514,0.07016 0.76231,0.134466 0.0836,0.05788 0.12537,0.225954 0.12537,0.50248 v 3.906604 c 0,0.50803 -0.0227,0.91567 -0.0677,1.22435 -0.0257,0.19294 -0.0966,0.31823 -0.21231,0.3761 -0.10933,0.0579 -0.30813,0.097 -0.59752,0.11627 v 0.28915 h 2.34356 v -0.28915 c -0.36013,-0.0257 -0.6007,-0.0648 -0.72289,-0.11627 -0.12217,-0.0579 -0.19669,-0.18318 -0.22242,-0.3761 -0.045,-0.30868 -0.0677,-0.71632 -0.0677,-1.22435 v -3.935924 h 0.0192 c 2.53374,3.575544 3.93576,5.555944 4.20586,5.941794 h 0.65616 v -4.832699 c 0,-0.508036 0.0227,-0.916682 0.0677,-1.225363 0.0257,-0.192922 0.0929,-0.318221 0.2022,-0.376101 0.11576,-0.05788 0.31824,-0.09596 0.60763,-0.115257 v -0.289153 h -2.34356 v 0.289153 c 0.36013,0.02572 0.6007,0.06749 0.72289,0.125367 0.12218,0.05145 0.19669,0.173067 0.22242,0.365991 0.045,0.308681 0.0677,0.717327 0.0677,1.225363 v 3.472869 l -0.0192,-0.0192 c -1.11897,-1.56912 -2.40571,-3.388802 -3.85908,-5.459533 z m 14.95205,0 v 0.289153 c 0.43087,0.02573 0.68515,0.07016 0.76231,0.134466 0.0836,0.05788 0.12537,0.225954 0.12537,0.50248 v 4.996484 c 0,0.27654 -0.0418,0.4436 -0.12537,0.50147 -0.0772,0.0579 -0.33144,0.0996 -0.76231,0.12537 v 0.28915 h 3.07655 c 1.05465,0 1.89099,-0.21251 2.50835,-0.63694 0.86174,-0.59164 1.2931,-1.55861 1.2931,-2.90266 0,-1.04822 -0.29972,-1.861838 -0.89779,-2.440613 -0.61092,-0.559485 -1.51074,-0.8455 -2.70044,-0.85836 z m 15.19268,0 v 0.289153 c 0.43086,0.02573 0.68514,0.07016 0.76231,0.134466 0.0836,0.05788 0.12537,0.225954 0.12537,0.50248 v 3.906604 c 0,0.50803 -0.0227,0.91567 -0.0677,1.22435 -0.0257,0.19294 -0.0966,0.31823 -0.21232,0.3761 -0.10932,0.0579 -0.30914,0.097 -0.59853,0.11627 v 0.28915 h 2.34457 v -0.28915 c -0.36012,-0.0257 -0.60171,-0.0648 -0.72389,-0.11627 -0.12218,-0.0579 -0.19568,-0.18318 -0.22142,-0.3761 -0.045,-0.30868 -0.0677,-0.71632 -0.0677,-1.22435 v -3.916714 h 0.0192 l 2.54678,5.807324 h 0.26994 l 2.57609,-5.807324 h 0.0283 v 5.006594 c 0,0.27654 -0.0418,0.4436 -0.12537,0.50147 -0.0772,0.0579 -0.33044,0.0996 -0.7613,0.12537 v 0.28915 h 2.75808 v -0.28915 c -0.43087,-0.0321 -0.68781,-0.0739 -0.77141,-0.12537 -0.0772,-0.0579 -0.11627,-0.22494 -0.11627,-0.50147 v -4.996484 c 0,-0.276523 0.0428,-0.4446 0.12638,-0.50248 0.0836,-0.06431 0.33686,-0.108746 0.7613,-0.134466 v -0.289153 h -1.98667 c -0.20578,0.533759 -0.58536,1.408185 -1.13841,2.623613 l -1.18694,2.64282 h -0.0192 l -1.16673,-2.63372 c -0.6881,-1.562697 -1.07135,-2.439788 -1.14852,-2.632713 z m -4.0896,0.202205 c 0.33441,0 0.63311,0.06716 0.89678,0.202205 0.26366,0.128617 0.47249,0.299361 0.62683,0.511579 0.15434,0.205786 0.27964,0.456384 0.37611,0.752202 0.10287,0.289391 0.17371,0.575412 0.21231,0.858362 0.0383,0.28296 0.0611,0.58268 0.0677,0.89779 -0.006,0.31511 -0.0291,0.61383 -0.0677,0.89678 -0.0386,0.28296 -0.10942,0.57265 -0.21231,0.86847 -0.0965,0.28939 -0.22177,0.53998 -0.37611,0.7522 -0.15434,0.20579 -0.36317,0.37653 -0.62683,0.51158 -0.26367,0.12861 -0.56237,0.1921 -0.89678,0.1921 -0.3344,0 -0.63412,-0.0635 -0.89779,-0.1921 -0.26367,-0.13505 -0.4725,-0.30579 -0.62684,-0.51158 -0.15434,-0.21222 -0.28332,-0.46281 -0.38621,-0.7522 -0.0965,-0.29582 -0.1636,-0.58551 -0.2022,-0.86847 -0.0383,-0.28295 -0.0611,-0.58167 -0.0677,-0.89678 0.006,-0.31511 0.0291,-0.61483 0.0677,-0.89779 0.0386,-0.28295 0.10574,-0.568971 0.2022,-0.858362 0.10289,-0.295818 0.23187,-0.546416 0.38621,-0.752202 0.15434,-0.212218 0.36317,-0.382962 0.62684,-0.511579 0.26367,-0.135047 0.56339,-0.202205 0.89779,-0.202205 z m -8.09326,0.144576 c 1.83922,0.03215 2.75808,1.031879 2.75808,2.999712 0,0.6045 -0.0708,1.1194 -0.21232,1.54384 -0.13504,0.418 -0.33753,0.74311 -0.60762,0.97462 -0.2701,0.22508 -0.57249,0.3858 -0.90689,0.48226 -0.32797,0.0965 -0.71022,0.14458 -1.14752,0.14458 -0.43729,0 -0.72064,-0.0518 -0.84926,-0.15469 -0.12218,-0.10289 -0.18299,-0.34714 -0.18299,-0.73299 v -4.688124 c 0,-0.257232 0.0581,-0.41528 0.17389,-0.47316 0.12219,-0.06431 0.44731,-0.09605 0.97463,-0.09605 z" />
    </g>
    <g
       aria-label="LIBRARY"
       id="text1816-0"
       style="font-size:9.87777px;font-family:Utopia;-inkscape-font-specification:'Utopia, Normal';fill:#ffffff;fill-opacity:1;stroke-width:0.79375"
       transform="matrix(2.4958616,0,0,2.4958616,-270.47752,-133.17466)">
      <path
         id="path1818-2"
         d="m 136.45886,101.26363 v 0.28933 c 0.43086,0.0257 0.68485,0.0711 0.76202,0.13543 0.0836,0.0579 0.12532,0.22475 0.12532,0.50128 v 4.99691 c 0,0.27654 -0.0417,0.44384 -0.12532,0.50171 -0.0772,0.0579 -0.33116,0.0996 -0.76202,0.12532 v 0.28933 h 5.12222 l 0.12532,-1.76545 h -0.299 c -0.045,0.31511 -0.11268,0.56954 -0.20271,0.76246 -0.09,0.19292 -0.21518,0.33754 -0.37596,0.434 -0.16076,0.0901 -0.32808,0.15123 -0.50171,0.18336 -0.1672,0.0257 -0.39893,0.0383 -0.69475,0.0383 -0.52733,0 -0.88097,-0.032 -1.06103,-0.0963 -0.10291,-0.045 -0.17013,-0.11591 -0.20227,-0.21238 -0.0321,-0.10289 -0.0484,-0.2795 -0.0484,-0.5303 v -4.72692 c 0,-0.27653 0.045,-0.44341 0.135,-0.50128 0.09,-0.0643 0.36347,-0.10969 0.82006,-0.13543 v -0.28933 z m 5.60459,0 v 0.28933 c 0.43087,0.0257 0.68486,0.0707 0.76202,0.13499 0.0836,0.0579 0.12532,0.22519 0.12532,0.50172 v 4.99691 c 0,0.27654 -0.0417,0.44384 -0.12532,0.50171 -0.0772,0.0579 -0.33115,0.0996 -0.76202,0.12532 v 0.28933 h 2.75877 v -0.28933 c -0.43087,-0.0321 -0.6881,-0.0738 -0.7717,-0.12532 -0.0836,-0.0579 -0.12532,-0.22519 -0.12532,-0.50171 v -4.99691 c 0,-0.27653 0.0417,-0.44385 0.12532,-0.50172 0.0836,-0.0643 0.34083,-0.10925 0.7717,-0.13499 v -0.28933 z m 3.44384,0 v 0.28933 c 0.43087,0.0257 0.68485,0.0707 0.76202,0.13499 0.0836,0.0579 0.12532,0.22519 0.12532,0.50172 v 4.99691 c 0,0.27654 -0.0417,0.44384 -0.12532,0.50171 -0.0772,0.0579 -0.33115,0.0996 -0.76202,0.12532 v 0.28933 h 3.05777 c 1.64629,0 2.46943,-0.64005 2.46943,-1.91979 0,-0.54662 -0.1673,-0.96424 -0.50171,-1.25362 -0.32797,-0.29582 -0.75576,-0.47935 -1.28308,-0.55009 v -0.0193 c 0.46301,-0.09 0.82314,-0.26988 1.08037,-0.53997 0.26367,-0.27653 0.39575,-0.60466 0.39575,-0.98408 0,-0.52733 -0.20579,-0.93241 -0.61736,-1.21537 -0.34727,-0.23794 -0.89696,-0.35705 -1.64937,-0.35705 h -0.0967 z m 6.37585,0 v 0.28933 c 0.43087,0.0257 0.68486,0.0707 0.76203,0.13499 0.0836,0.0579 0.12575,0.22519 0.12575,0.50172 v 4.99691 c 0,0.27654 -0.0421,0.44384 -0.12575,0.50171 -0.0772,0.0579 -0.33116,0.0996 -0.76203,0.12532 v 0.28933 h 2.75877 v -0.28933 c -0.43087,-0.0321 -0.6881,-0.0738 -0.7717,-0.12532 -0.0836,-0.0579 -0.12532,-0.22519 -0.12532,-0.50171 v -2.30542 h 0.68508 c 0.6688,0 1.07389,0.28598 1.21537,0.85832 0.0193,0.0836 0.061,0.31857 0.12531,0.70442 0.0707,0.37942 0.12542,0.64918 0.16402,0.80995 0.0707,0.30868 0.19633,0.52744 0.37639,0.65606 0.18007,0.12862 0.42109,0.19303 0.72333,0.19303 h 0.80072 1.94837 v -0.28933 l -0.52062,-0.0484 c -0.18649,-0.0193 -0.2801,-0.0837 -0.2801,-0.19303 0,-0.0193 0.013,-0.0865 0.0387,-0.20227 0.0965,-0.35369 0.29576,-0.98727 0.59801,-1.90045 h 2.2188 l 0.65605,1.8811 c 0.0321,0.0964 0.0479,0.17015 0.0479,0.22162 0,0.11578 -0.10289,0.18344 -0.30868,0.20271 l -0.45335,0.0387 v 0.28933 h 2.53715 v -0.28933 c -0.29582,-0.0257 -0.49187,-0.0674 -0.58833,-0.12532 -0.0965,-0.0643 -0.18683,-0.21864 -0.27043,-0.46302 l -2.10271,-5.96164 h -0.72333 l -1.04212,2.92278 c -0.0643,0.18006 -0.17044,0.47901 -0.31835,0.89702 -0.14148,0.41157 -0.27636,0.79115 -0.40498,1.13842 -0.12219,0.34726 -0.23481,0.6527 -0.3377,0.91636 -0.10932,0.27653 -0.21546,0.45681 -0.31835,0.54041 -0.0852,0.0639 -0.23984,0.10507 -0.4617,0.12488 -0.3076,-0.0437 -0.52345,-0.16583 -0.64726,-0.36629 -0.13504,-0.21865 -0.22863,-0.52733 -0.2801,-0.92603 -0.0322,-0.25724 -0.0706,-0.46627 -0.11564,-0.62703 -0.0386,-0.16078 -0.10625,-0.32441 -0.20271,-0.49161 -0.09,-0.16719 -0.22167,-0.30576 -0.39531,-0.41509 -0.1672,-0.1093 -0.37622,-0.19597 -0.62703,-0.26031 v -0.0193 c 0.47589,-0.09 0.86196,-0.28933 1.15777,-0.59801 0.29582,-0.30868 0.44367,-0.69151 0.44367,-1.1481 0,-0.51447 -0.18353,-0.92279 -0.55008,-1.22504 -0.36013,-0.30868 -0.94829,-0.46302 -1.76501,-0.46302 z m 12.62727,0 v 0.28933 c 0.43087,0.0257 0.68485,0.0707 0.76202,0.13499 0.0836,0.0579 0.12532,0.22519 0.12532,0.50172 v 4.99691 c 0,0.27654 -0.0417,0.44384 -0.12532,0.50171 -0.0772,0.0579 -0.33115,0.0996 -0.76202,0.12532 v 0.28933 h 2.75876 v -0.28933 c -0.43086,-0.0321 -0.68809,-0.0738 -0.77169,-0.12532 -0.0836,-0.0579 -0.12532,-0.22519 -0.12532,-0.50171 v -2.30542 h 0.68463 c 0.66881,0 1.0739,0.28598 1.21537,0.85832 0.0193,0.0836 0.061,0.31857 0.12532,0.70442 0.0707,0.37942 0.12541,0.64918 0.16401,0.80995 0.0707,0.30868 0.19633,0.52744 0.3764,0.65606 0.18006,0.12862 0.42108,0.19303 0.72333,0.19303 h 0.80072 v -0.28933 c -0.3537,-0.0322 -0.59796,-0.15775 -0.73301,-0.3764 -0.13502,-0.21865 -0.22819,-0.52733 -0.27965,-0.92603 -0.0322,-0.25724 -0.0711,-0.46627 -0.11609,-0.62703 -0.0386,-0.16078 -0.1058,-0.32441 -0.20227,-0.49161 -0.09,-0.16719 -0.22211,-0.30576 -0.39574,-0.41509 -0.16721,-0.1093 -0.37623,-0.19597 -0.62703,-0.26031 v -0.0193 c 0.47588,-0.09 0.86195,-0.28933 1.15777,-0.59801 0.29582,-0.30868 0.44367,-0.69151 0.44367,-1.1481 0,-0.51447 -0.18353,-0.92279 -0.55009,-1.22504 -0.36012,-0.30868 -0.94829,-0.46302 -1.76501,-0.46302 z m 5.44981,0 v 0.28933 c 0.26367,0.0129 0.44719,0.0486 0.55009,0.10641 0.10932,0.0515 0.2187,0.17985 0.32802,0.38563 0.66238,1.22186 1.20234,2.25403 1.62035,3.09647 0.0965,0.19292 0.14466,0.38249 0.14466,0.56899 v 1.47612 c 0,0.27007 -0.0482,0.43738 -0.14466,0.50171 -0.0965,0.0579 -0.39541,0.0996 -0.89702,0.12532 v 0.28933 h 3.06745 v -0.28933 c -0.50161,-0.0257 -0.80056,-0.0674 -0.89702,-0.12532 -0.0965,-0.0643 -0.14467,-0.23161 -0.14467,-0.50171 v -1.51438 c 0,-0.21864 0.0417,-0.41145 0.12532,-0.57866 0.66882,-1.34404 1.18652,-2.30575 1.55307,-2.88452 0.18007,-0.28296 0.31819,-0.45956 0.41465,-0.5303 0.1029,-0.0707 0.31517,-0.11289 0.63671,-0.12576 v -0.28933 h -2.16076 v 0.28933 l 0.53074,0.0484 c 0.10289,0.006 0.15434,0.0546 0.15434,0.14467 0,0.0579 -0.013,0.11582 -0.0387,0.17368 -0.25723,0.61093 -0.73646,1.60139 -1.43742,2.97115 h -0.0194 c -0.64952,-1.1897 -1.15749,-2.18339 -1.52405,-2.98082 -0.0257,-0.0515 -0.0383,-0.0997 -0.0383,-0.14467 0,-0.09 0.0514,-0.14147 0.15434,-0.15434 l 0.57866,-0.058 v -0.28933 z m -21.7909,0.34737 h 0.0387 c 0.41158,0 0.75873,0.0997 1.04169,0.29901 0.28938,0.19935 0.43443,0.52749 0.43443,0.98408 0,0.90675 -0.55013,1.36004 -1.6498,1.36004 h -0.66529 v -2.15109 h -4.4e-4 c 0,-0.21862 0.0389,-0.35395 0.11608,-0.40541 0.0836,-0.0512 0.31165,-0.08 0.68464,-0.0866 z m 6.29934,0 c 0.44373,0 0.81314,0.10938 1.10896,0.32803 0.30225,0.21221 0.45334,0.58207 0.45334,1.1094 0,0.99035 -0.50148,1.48535 -1.5047,1.48535 h -0.78137 v -2.43074 c 0,-0.21222 0.0385,-0.34755 0.11565,-0.40541 0.0836,-0.0579 0.28657,-0.0866 0.60812,-0.0866 z m 12.62683,0 c 0.44372,0 0.81358,0.10938 1.1094,0.32803 0.30225,0.21221 0.45334,0.58207 0.45334,1.1094 0,0.99035 -0.50193,1.48535 -1.50514,1.48535 h -0.78093 v -2.43074 c 0,-0.21222 0.0385,-0.34755 0.11564,-0.40541 0.0836,-0.0579 0.28615,-0.0866 0.60769,-0.0866 z m -6.38597,0.65606 h 0.029 l 0.97441,2.82604 h -1.95849 c 0.19293,-0.59163 0.51134,-1.53344 0.95506,-2.82604 z m -13.34048,2.32477 h 0.71365 c 0.61094,0 1.08044,0.14785 1.40841,0.44367 0.32797,0.28938 0.49204,0.69771 0.49204,1.22504 0,0.99678 -0.55338,1.49503 -1.65948,1.49503 -0.39228,0 -0.64951,-0.0482 -0.7717,-0.14467 -0.12219,-0.10289 -0.18292,-0.30868 -0.18292,-0.61736 z"
         style="fill:#ffffff;fill-opacity:1" />
    </g>
  </g>
</svg>
